<svg xmlns="http://www.w3.org/2000/svg" width="64" height="64" fill="none"><path fill="#4AFB39" d="M23.577 9.615c-8.842-2.532-18.853 5.348-22.36 17.6-3.506 12.25.82 24.232 9.66 26.764 8.842 2.532 18.853-5.348 22.36-17.6 3.506-12.25-.819-24.232-9.66-26.764Zm-1.49 11.508a4.605 4.605 0 0 1-4.97 4.21 4.605 4.605 0 0 1-4.211-4.97 4.605 4.605 0 0 1 4.97-4.21 4.605 4.605 0 0 1 4.211 4.97Zm33.42-1.937c-6.905-1.975-14.72 4.176-17.458 13.741-2.737 9.566.639 18.922 7.543 20.897 6.904 1.977 14.72-4.176 17.457-13.741 2.738-9.566-.638-18.922-7.542-20.897ZM54.49 30.259a4.605 4.605 0 0 1-4.971 4.21 4.606 4.606 0 1 1 4.97-4.21Z"/></svg>